<?xml version="1.0" standalone="no"?>
<!DOCTYPE svg PUBLIC "-//W3C//DTD SVG 20010904//EN"
 "http://www.w3.org/TR/2001/REC-SVG-20010904/DTD/svg10.dtd">
<svg version="1.0" xmlns="http://www.w3.org/2000/svg"
 width="700.000000pt" height="700.000000pt" viewBox="0 0 700.000000 700.000000"
 preserveAspectRatio="xMidYMid meet">
<metadata>
Created by potrace 1.14, written by Peter Selinger 2001-2017
</metadata>
<g transform="translate(0.000000,700.000000) scale(0.100000,-0.100000)"
fill="#000000" stroke="none">
<path d="M2679 6446 c-2 -2 -62 -6 -134 -9 -252 -11 -507 -73 -755 -185 -115
-53 -184 -154 -183 -272 1 -126 -6 -117 533 -656 l484 -484 1 -223 c1 -122 0
-227 -2 -232 -2 -7 -84 -10 -233 -10 l-229 0 -478 477 c-263 263 -490 487
-504 498 -33 24 -122 48 -169 45 -96 -7 -181 -55 -231 -130 -68 -105 -167
-401 -193 -580 -2 -16 -7 -48 -11 -70 -14 -94 -20 -327 -10 -420 11 -105 17
-170 17 -172 -1 -2 3 -17 8 -34 5 -18 12 -50 16 -73 9 -63 72 -262 111 -356
288 -677 900 -1139 1638 -1237 118 -16 544 -7 575 12 3 2 25 6 50 10 52 8 208
48 265 68 l40 15 835 -835 c500 -499 860 -851 898 -878 105 -73 248 -132 367
-153 54 -9 258 -9 320 1 211 34 426 168 564 351 80 105 127 210 162 356 14 57
19 279 8 340 -15 79 -30 129 -58 198 -68 165 -82 180 -973 1071 l-835 834 24
76 c30 95 68 270 82 376 10 81 8 445 -3 500 -7 35 -16 87 -23 130 -21 131 -99
359 -180 520 -50 100 -174 299 -219 351 -11 12 -41 46 -67 77 -343 398 -867
659 -1393 693 -55 3 -102 8 -105 10 -3 2 -8 2 -10 0z m201 -605 c83 -16 245
-59 290 -78 118 -50 267 -132 345 -190 316 -236 510 -562 580 -973 11 -62 13
-293 4 -360 -17 -122 -21 -145 -24 -151 -2 -3 -6 -19 -9 -35 -9 -48 -45 -153
-84 -244 -32 -75 -37 -95 -37 -165 0 -66 4 -89 25 -128 18 -35 271 -295 932
-956 983 -983 952 -948 965 -1070 6 -59 -17 -156 -51 -209 -61 -97 -191 -160
-303 -149 -128 13 -96 -16 -1082 972 -673 673 -916 911 -950 927 -29 14 -71
24 -111 26 -59 4 -77 -1 -180 -41 -171 -68 -232 -85 -390 -112 -61 -11 -292
-13 -360 -4 -134 18 -156 23 -255 53 -237 70 -437 189 -613 364 -227 224 -371
515 -419 847 -11 73 -9 363 2 374 7 7 139 -119 360 -341 286 -287 360 -355
405 -377 l55 -26 510 0 510 0 45 24 c67 36 124 99 149 165 21 56 21 67 19 554
l-3 497 -27 50 c-18 35 -130 154 -377 400 -193 193 -351 352 -351 355 0 3 17
7 37 8 21 2 39 4 41 6 8 9 293 -3 352 -13z"/>
</g>
</svg>
